<?xml version="1.0" encoding="utf-8"?>
<!-- Generator: Adobe Illustrator 24.0.1, SVG Export Plug-In . SVG Version: 6.00 Build 0)  -->
<svg version="1.1" id="ea878d0f-c60d-4637-874b-f3bcf7dfa137"
	 xmlns="http://www.w3.org/2000/svg" xmlns:xlink="http://www.w3.org/1999/xlink" x="0px" y="0px" viewBox="0 0 1667 565"
	 style="enable-background:new 0 0 1667 565;" xml:space="preserve">
<style type="text/css">
	.st0{fill:#D0CDE1;}
	.st1{fill:#2F2E41;}
	.st2{fill:#3F3D56;}
	.st3{fill:#FFFFFF;}
	.st4{fill:#6C63FF;}
	.st5{fill:#FFB9B9;}
	.st6{opacity:0.1;enable-background:new    ;}
	.st7{fill:#575A89;}
</style>
<title>annotation</title>
<path class="st0" d="M1554.8,507.6c-13.9,25.9-743.4,23.7-742.3,0C826.3,481.7,1555.9,483.9,1554.8,507.6z"/>
<rect x="776.5" y="107.1" class="st1" width="122.5" height="106"/>
<rect x="361.8" y="136.9" class="st2" width="350.9" height="291.2"/>
<rect x="467.3" y="185.3" class="st3" width="140" height="17.5"/>
<rect x="409.7" y="226.5" class="st3" width="97.2" height="10.3"/>
<rect x="487.9" y="294.4" class="st3" width="97.2" height="10.3"/>
<rect x="566.1" y="226.5" class="st4" width="97.2" height="10.3"/>
<rect x="793" y="166.8" class="st4" width="88.5" height="4.8"/>
<rect x="792" y="177.2" class="st4" width="88.5" height="4.8"/>
<rect x="793" y="187.7" class="st4" width="88.5" height="4.8"/>
<rect x="793" y="131.8" class="st4" width="88.5" height="4.8"/>
<rect x="792" y="142.3" class="st4" width="88.5" height="4.8"/>
<rect x="793" y="152.7" class="st4" width="88.5" height="4.8"/>
<rect x="811.5" y="142.1" class="st2" width="122.5" height="106"/>
<rect x="828" y="201.8" class="st4" width="88.5" height="4.8"/>
<rect x="827" y="212.2" class="st4" width="88.5" height="4.8"/>
<rect x="828" y="222.7" class="st4" width="88.5" height="4.8"/>
<rect x="828" y="166.8" class="st4" width="88.5" height="4.8"/>
<rect x="827" y="177.2" class="st4" width="88.5" height="4.8"/>
<rect x="828" y="187.7" class="st4" width="88.5" height="4.8"/>
<rect x="85" y="183.2" class="st2" width="122.5" height="106"/>
<rect x="101.5" y="242.9" class="st4" width="88.5" height="4.8"/>
<rect x="100.4" y="253.4" class="st4" width="88.5" height="4.8"/>
<rect x="101.5" y="263.9" class="st4" width="88.5" height="4.8"/>
<rect x="101.5" y="207.9" class="st4" width="88.5" height="4.8"/>
<rect x="100.4" y="218.4" class="st4" width="88.5" height="4.8"/>
<rect x="101.5" y="228.9" class="st4" width="88.5" height="4.8"/>
<rect x="409.7" y="260.4" class="st3" width="255.2" height="10.3"/>
<rect x="409.7" y="294.4" class="st4" width="57.1" height="10.3"/>
<rect x="409.7" y="362.3" class="st3" width="57.1" height="10.3"/>
<rect x="606.2" y="294.4" class="st3" width="57.1" height="10.3"/>
<rect x="409.7" y="328.3" class="st3" width="255.2" height="10.3"/>
<rect x="515.2" y="362.3" class="st3" width="149.7" height="10.3"/>
<polygon class="st1" points="640.5,232.2 638.9,231 750.3,85.5 860.9,85.5 860.9,87.5 751.3,87.5 "/>
<polygon class="st1" points="415.7,300.3 252.4,160.6 142.6,160.6 142.6,158.5 253.1,158.5 417,298.7 "/>
<circle class="st4" cx="860.9" cy="85.5" r="16.5"/>
<circle class="st4" cx="142.6" cy="159.6" r="16.5"/>
<path class="st0" d="M1483,490.2c0,0,24-80.8-67.3-126.8L1483,490.2z"/>
<path class="st0" d="M1486,490.6c0,0,9.5-79.7,115.9-84.7L1486,490.6z"/>
<polygon class="st5" points="1078.1,477.8 1053.3,476.2 1061.5,513.4 1089.7,501.8 "/>
<polygon class="st1" points="1305.6,408.4 1247.7,352.1 1214.6,377.7 1149.2,456.3 1156.7,467.9 1236.1,414.1 1289.9,484.5 
	1341.2,458.8 "/>
<polygon class="st6" points="1305.6,408.4 1247.7,352.1 1214.6,377.7 1149.2,456.3 1156.7,467.9 1236.1,414.1 1289.9,484.5 
	1341.2,458.8 "/>
<path class="st5" d="M1310.5,445.6l-7.4,5.8l-60.4-20.7l-14.1-5.8l-28.1,5.8c0,0,0-23.2,26.5-22.3l27.3,6.6l32.3,2.5L1310.5,445.6z"
	/>
<polygon class="st1" points="1364.3,506.8 1346.1,518.4 1324.6,518.4 1224.5,481.2 1078.1,507.6 1073.9,476.2 1208,417.5 
	1325.4,456.3 "/>
<path class="st5" d="M1246.8,359.5l-12.4,2.5l-2.7-3.2c-4.4-5.1-5.3-12.3-2.3-18.4l0,0l34.7-45.5c0,0,9.9-22.3,25.6-13.2
	c15.7,9.1-13.2,24-13.2,24l-17.4,27.3l1.7,14.1L1246.8,359.5z"/>
<circle class="st5" cx="1325.4" cy="273.5" r="32.3"/>
<path class="st5" d="M1311,297.1l14.9,35.6l35.6-14.9c0,0-11.6-28.1-11.6-29S1311,297.1,1311,297.1z"/>
<path class="st7" d="M1408.9,402.3c0,19.5-3.1,38.8-9.1,57.3l-2.4,7.4l-11.6,52.9l-12.4,3.3l-9.1-11.6l-18.2-13.2l-13.2-21.5
	l-11.4-18.9l-3.5-5.9l-12.4-62l-47.2-26.5l-15.7-2.5l3.3-9.1l14.1-19l14.1-1.7l4.1-3.3l3.3,1.7l13.2-7.4l4.1,1.7l24.2,2.3l14.7-3.1
	l21.1-11.3l8.7,1.4l29.8,24.8C1405,358.6,1408.9,380.4,1408.9,402.3z"/>
<path class="st1" d="M1060.9,490.7c0,0,7.4-12.6,4.3-14c-3.1-1.5-16.4-7.3-16.4-7.3l-19.5-6.5c0,0-28.1-41.8-28.7-5.5
	s20.5,45.1,20.5,45.1s18.8,40.5,29.5,34s21.3-28.4,21.3-28.4S1052.5,497.8,1060.9,490.7z"/>
<polygon class="st6" points="1399.9,395.1 1368.5,415.8 1321.5,458.1 1318,452.2 1308.1,402.6 1310.5,402.6 1336.2,355.4 "/>
<polygon class="st7" points="1336.2,350.4 1310.5,397.6 1301.4,397.6 1295.7,414.1 1282.4,417.5 1318,456.3 1368.5,410.8 
	1399.9,390.2 "/>
<path class="st1" d="M1300.3,249.5l-3.5,1.3c-2.2-1.5-2.8-4.5-1.3-6.8c0,0,0-0.1,0.1-0.1l-6.5-0.3c16.2-21.5,46.8-25.9,68.3-9.7
	c1.6,1.2,3.1,2.5,4.5,3.8c0.3-1,3.5,1,4.8,3c0.4-1.6,3.4,6.3,4.5,12c0.5-1.9,2.4,1.2,0.7,4.1c1.1-0.2,1.5,2.5,0.7,4
	c1.1-0.5,1,2.7-0.3,4.8c1.6-0.1-12.9,22.5-18.8,35.7c-1.7-7.9-3.6-16.2-9.2-22c-0.9-1-2-1.9-3-2.8l-5.6-4.9
	c-6.5-5.7-12.3-12.7-20.9-14.9c-5.9-1.5-9.7-1.8-6.4-8.5c-2.9,1.2-5.6,3-8.6,4.1C1300,251.5,1300.4,250.4,1300.3,249.5z"/>
<circle class="st5" cx="1341.6" cy="277.2" r="5.8"/>
</svg>
