<svg xmlns="http://www.w3.org/2000/svg" xmlns:xlink="http://www.w3.org/1999/xlink" viewBox="0 0 1188 795.35" stroke-width="5" fill="none"><defs><style>.a{fill:"none";}.b,.c,.g{fill:"none";}.b{opacity:0.3;}.b,.d,.f,.g,.i,.j{isolation:isolate;}.d{opacity:0.2;}.e{fill:"none";}.f{opacity:0.03;}.g,.j,.n{opacity:0.1;}.h{fill:"none";}.i{fill:"none";opacity:0.6;}.k,.l{fill:"none";stroke-miterlimit:10;stroke-width:4px;}.k{stroke:#2f2e41;}.l{stroke:#3f3d56;}.m{fill:"none";}.o{fill:"none";}.p{fill:"none";}</style><linearGradient id="a" x1="600" y1="-51.67" x2="600" y2="697" gradientTransform="matrix(1, 0, 0, -1, -6, 743.67)" gradientUnits="userSpaceOnUse"><stop offset="0" stop-color="#6c63ff"/><stop offset="1" stop-color="#3f3d56"/></linearGradient><linearGradient id="b" x1="661.42" y1="340.46" x2="661.42" y2="743.68" gradientTransform="matrix(1, 0, 0, -1, 162, 743.67)" gradientUnits="userSpaceOnUse"><stop offset="0" stop-color="gray" stop-opacity="0.25"/><stop offset="0.54" stop-color="gray" stop-opacity="0.12"/><stop offset="1" stop-color="gray" stop-opacity="0.1"/></linearGradient></defs><title>surreal_undraw_dreamer</title><path class="a" d="M1136.29,356.1q-7-9.83-14.87-19a278.67,278.67,0,0,0-96.83-72.77,272.68,272.68,0,0,0-31.27-11.93q-11.1-3.48-22.58-6l-14.44-2.83a278.47,278.47,0,0,0-209.12,49q-10.77-1.31-21.8-1.75c-.28-.77-.57-1.54-.87-2.32q-3.68-9.74-7.89-19.2a374.38,374.38,0,0,0-62.4-96.88c-1.18-1.32-2.36-2.64-3.56-3.94a378.3,378.3,0,0,0-56.56-50.57A373.14,373.14,0,0,0,374.86,46.67h-.53q-8.76,0-17.41.41l-22.27,1.68c-1.83.19-3.66.39-5.48.62h0l-22.51,3.4q-8.94,1.62-17.73,3.69A375.17,375.17,0,0,0,85.8,182.52q-9.48,11.43-18,23.63c-2.71,3.86-5.35,7.75-7.9,11.71-1.23,1.9-2.44,3.8-3.64,5.72Q50.32,233.09,45,243q-5.67,10.47-10.68,21.32a1.42,1.42,0,0,0-.08.18A370.38,370.38,0,0,0,9.51,337h0q-2.26,9.84-4,19.86-.68,3.84-1.26,7.7l-.12.86c-1,7-1.89,14-2.54,21.13l-.87.08c.07.21.14.42.19.64a6.45,6.45,0,0,0,.58.31c-.08.91-.15,1.82-.22,2.72a8.48,8.48,0,0,1-.19,2.41Q0,406.67,0,421A372.41,372.41,0,0,0,42.54,594.47l.39.74A375.84,375.84,0,0,0,162.57,729.67,371.93,371.93,0,0,0,294.7,786.84l8.27,1.69q17.14,3.32,34.83,5,18,1.74,36.53,1.75a375,375,0,0,0,51.33-3.5H866.05l3.58.55c151.8,22.39,293-82.52,315.39-234.32a277.8,277.8,0,0,0-48.73-202Z" transform="translate(0 0.01)"/><path class="b" d="M989,561h0c0-3.27-.16-6.5-.34-9.74q-.31-6.11-.89-12.15a275,275,0,0,0-5.43-34c-.11-.5-.23-1-.35-1.51q-3-12.94-7.17-25.43-2.82-8.39-6.15-16.45h0q-1.18-2.91-2.44-5.75a274,274,0,0,0-13-26h0l-.63-1.1c-1.45-2.52-3-5-4.48-7.51h0l-.61-1c-.29-.47-.58-.87-.83-1.32v-.06q-2.94-4.67-6.06-9.19a275.6,275.6,0,0,0-21.3-27.1h0a277.81,277.81,0,0,0-37.09-34.58h0c-3.33-2.55-6.7-5.05-10.15-7.47h0A273.36,273.36,0,0,0,747.3,292.71q-10.77-1.31-21.8-1.75c-1.81-.08-3.62-.13-5.43-.16-2-.06-4-.07-6-.07A278.67,278.67,0,0,0,679,293a274.32,274.32,0,0,0-57.06,13.62A275.22,275.22,0,0,0,384,169.67a271.61,271.61,0,0,0-29.36,1.57c-1.08.09-2.16.22-3.24.35a273.27,273.27,0,0,0-39.17,7.55c-3.82-6.28-7.89-12.43-12.2-18.38s-8.69-11.59-13.37-17.09q-6-7-12.38-13.62a4.16,4.16,0,0,0-.42-.42,275.83,275.83,0,0,0-20.94-19.36c-3.9-3.26-7.89-6.42-12-9.44q-7.71-5.76-15.83-10.94-5.7-3.66-11.58-7A376.14,376.14,0,0,0,85.8,182.52q-9.48,11.43-18,23.63c-2.71,3.86-5.35,7.75-7.9,11.71-1.23,1.9-2.44,3.8-3.64,5.72Q50.32,233.09,45,243q-5.67,10.47-10.68,21.32a1.42,1.42,0,0,0-.08.18A370.38,370.38,0,0,0,9.51,337h0q-2.26,9.84-4,19.86-.68,3.84-1.26,7.7l-.12.86c-1,7-1.89,14-2.54,21.13l-.87.08c.07.21.14.42.19.64a6.45,6.45,0,0,0,.58.31c-.08.91-.15,1.82-.22,2.72a8.48,8.48,0,0,1-.19,2.41Q0,406.67,0,421A372.41,372.41,0,0,0,42.54,594.47c.33,0,.67.1,1,.13h0a276.35,276.35,0,0,0,105.21-7.46q4.68,7.73,9.86,15.1,3.82,5.47,7.92,10.74a276.23,276.23,0,0,0,83.15,71.69c1.41.8,2.84,1.57,4.27,2.34A271,271,0,0,0,294,704.55q8,2.79,16.31,5.09c.31.08.62.18.93.25a272.62,272.62,0,0,0,53.13,9q9.72.71,19.62.71A277.86,277.86,0,0,0,428.33,716a271.12,271.12,0,0,0,27.18-5.87h0q10.5-2.8,20.65-6.43,2.85,4.89,5.89,9.64a272.06,272.06,0,0,0,22.95,31q6.28,7.38,13.11,14.29a276.24,276.24,0,0,0,39.45,33.2H866.05l3.58.55a278,278,0,0,0,40.27-33.71A274.3,274.3,0,0,0,985,612.36q1.37-8,2.27-16.06A277.46,277.46,0,0,0,989,565.67Z" transform="translate(0 0.01)"/><path class="c" d="M1188,517.54a278.29,278.29,0,0,1-139.71,241.13H506.83q-1-7.15-1.81-14.29c-.43-3.56-.83-7.11-1.21-10.67-.66-6.18-1.24-12.41-1.69-18.69-2.4-33.62-1-68,12.4-98.09a118.63,118.63,0,0,1,5.68-11.26,125.21,125.21,0,0,1,10.45-15.37,140.07,140.07,0,0,1,11-12.23,168.39,168.39,0,0,1,16.71-14.4c2.81-2.13,5.7-4.2,8.64-6.19l.54-.36c15.07-10.14,31.65-18.44,48.35-25.52l3.46-1.44.9-.37c1.63-.68,3.26-1.33,4.89-2l.65-.26q13.22-5.26,26.61-9.76,22.76-7.67,46.17-13.19,5.82-1.38,11.68-2.61,5.67-1.22,11.37-2.28,12.61-2.4,25.32-4.16c.88-.12,1.75-.24,2.63-.34l5.54-.73,1-.12c1.59-.2,3.19-.38,4.79-.56,6.53-.75,13.07-1.39,19.61-2h0a2.17,2.17,0,0,0,.76-.09h.06q10.39-.88,20.8-1.64l4.86-.36,4-.28,23.76-1.68c6.42-.49,12.83-1,19.24-1.57,1.09-.09,2.17-.18,3.26-.29l2.21-.21.6-.06h.28l3.71-.37h.22c1.07-.1,2.12-.21,3.18-.33,8.5-.88,17-1.92,25.44-3.19l2.58-.38A362.88,362.88,0,0,0,938.84,472q4.88-1.4,9.7-2.94,5.54-1.78,11-3.8l1.54-.57,7.56-3h0c3.64-1.5,7.24-3.11,10.78-4.8l.46-.21q6.32-3,12.4-6.44c1.88-1.06,3.75-2.16,5.59-3.29a177.34,177.34,0,0,0,26.26-19.32c.62-.56,1.23-1.11,1.83-1.67l.2-.18a273.48,273.48,0,0,0,22.42-24c9.94-11.68,19.56-23.69,30.53-34.38q4.8-4.68,10-9c4-3.3,8.08-6.41,12.32-9.33l.63-.44A181.92,181.92,0,0,1,1121.42,337q7.85,9.17,14.87,19A276.44,276.44,0,0,1,1188,517.54Z" transform="translate(0 0.01)"/><path class="d" d="M1188,517.54a278.29,278.29,0,0,1-139.71,241.13H506.83q-1-7.15-1.81-14.29c-.43-3.56-.83-7.11-1.21-10.67-.66-6.18-1.24-12.41-1.69-18.69-2.4-33.62-1-68,12.4-98.09a118.63,118.63,0,0,1,5.68-11.26,125.21,125.21,0,0,1,10.45-15.37,140.07,140.07,0,0,1,11-12.23,168.39,168.39,0,0,1,16.71-14.4c2.81-2.13,5.7-4.2,8.64-6.19l.54-.36c15.07-10.14,31.65-18.44,48.35-25.52l3.46-1.44.9-.37c1.63-.68,3.26-1.33,4.89-2l.65-.26q13.22-5.26,26.61-9.76,22.76-7.67,46.17-13.19,5.82-1.38,11.68-2.61,5.67-1.22,11.37-2.28,12.61-2.4,25.32-4.16c.88-.12,1.75-.24,2.63-.34l5.54-.73,1-.12c1.59-.2,3.19-.38,4.79-.56,6.53-.75,13.07-1.39,19.61-2h0a2.17,2.17,0,0,0,.76-.09h.06q10.39-.88,20.8-1.64l4.86-.36,4-.28,23.76-1.68c6.42-.49,12.83-1,19.24-1.57,1.09-.09,2.17-.18,3.26-.29l2.21-.21.6-.06h.28l3.71-.37h.22c1.07-.1,2.12-.21,3.18-.33,8.5-.88,17-1.92,25.44-3.19l2.58-.38A362.88,362.88,0,0,0,938.84,472q4.88-1.4,9.7-2.94,5.54-1.78,11-3.8l1.54-.57,7.56-3h0c3.64-1.5,7.24-3.11,10.78-4.8l.46-.21q6.32-3,12.4-6.44c1.88-1.06,3.75-2.16,5.59-3.29a177.34,177.34,0,0,0,26.26-19.32c.62-.56,1.23-1.11,1.83-1.67l.2-.18a273.48,273.48,0,0,0,22.42-24c9.94-11.68,19.56-23.69,30.53-34.38q4.8-4.68,10-9c4-3.3,8.08-6.41,12.32-9.33l.63-.44A181.92,181.92,0,0,1,1121.42,337q7.85,9.17,14.87,19A276.44,276.44,0,0,1,1188,517.54Z" transform="translate(0 0.01)"/><ellipse class="e" cx="197.29" cy="504.79" rx="5.41" ry="7.09"/><ellipse class="e" cx="197.29" cy="496.13" rx="5.41" ry="7.09"/><ellipse class="e" cx="197.29" cy="487.47" rx="5.41" ry="7.09"/><ellipse class="e" cx="197.29" cy="478.81" rx="5.41" ry="7.09"/><ellipse class="e" cx="197.29" cy="470.15" rx="5.41" ry="7.09"/><ellipse class="e" cx="197.29" cy="461.49" rx="5.41" ry="7.09"/><ellipse class="e" cx="197.29" cy="452.83" rx="5.41" ry="7.09"/><path class="c" d="M217.55,393.55a27.44,27.44,0,0,0,2-3l-14.22-2.33,15.38.11a26,26,0,0,0,.49-20.54l-20.64,10.7,19-14a25.93,25.93,0,1,0-42.83,29,25.9,25.9,0,0,0-3,4.73l18.47,9.59-19.69-6.61a25.93,25.93,0,0,0,4.18,24.35,25.93,25.93,0,1,0,40.76,0,25.92,25.92,0,0,0,0-32.06Z" transform="translate(0 0.01)"/><path class="f" d="M171.24,409.58a25.86,25.86,0,0,0,5.55,16,25.93,25.93,0,1,0,40.76,0C221,421.2,171.24,406.67,171.24,409.58Z" transform="translate(0 0.01)"/><ellipse class="e" cx="254.29" cy="527.79" rx="5.41" ry="7.09"/><ellipse class="e" cx="254.29" cy="519.13" rx="5.41" ry="7.09"/><ellipse class="e" cx="254.29" cy="510.47" rx="5.41" ry="7.09"/><ellipse class="e" cx="254.29" cy="501.81" rx="5.41" ry="7.09"/><ellipse class="e" cx="254.29" cy="493.15" rx="5.41" ry="7.09"/><ellipse class="e" cx="254.29" cy="484.49" rx="5.41" ry="7.09"/><ellipse class="e" cx="254.29" cy="475.83" rx="5.41" ry="7.09"/><path class="c" d="M274.55,416.55a27.44,27.44,0,0,0,2-3l-14.22-2.33,15.38.11a26,26,0,0,0,.49-20.54l-20.64,10.7,19-14a25.93,25.93,0,1,0-42.83,29,25.9,25.9,0,0,0-3,4.73l18.47,9.59-19.69-6.61a25.93,25.93,0,0,0,4.18,24.35,25.93,25.93,0,1,0,40.76,0,25.92,25.92,0,0,0,0-32.06Z" transform="translate(0 0.01)"/><path class="f" d="M228.24,432.58a25.86,25.86,0,0,0,5.55,16,25.93,25.93,0,1,0,40.76,0C278,444.2,228.24,429.67,228.24,432.58Z" transform="translate(0 0.01)"/><ellipse class="e" cx="621.29" cy="548.79" rx="5.41" ry="7.09"/><ellipse class="e" cx="621.29" cy="540.13" rx="5.41" ry="7.09"/><ellipse class="e" cx="621.29" cy="531.47" rx="5.41" ry="7.09"/><ellipse class="e" cx="621.29" cy="522.81" rx="5.41" ry="7.09"/><ellipse class="e" cx="621.29" cy="514.15" rx="5.41" ry="7.09"/><ellipse class="e" cx="621.29" cy="505.49" rx="5.41" ry="7.09"/><ellipse class="e" cx="621.29" cy="496.83" rx="5.41" ry="7.09"/><path class="c" d="M641.55,437.55a27.44,27.44,0,0,0,2-3l-14.22-2.33,15.38.11a26,26,0,0,0,.49-20.54l-20.64,10.7,19-14a25.93,25.93,0,1,0-42.83,29,25.9,25.9,0,0,0-3,4.73l18.47,9.59-19.69-6.61a25.93,25.93,0,0,0,4.18,24.35,25.93,25.93,0,1,0,40.76,0,25.92,25.92,0,0,0,0-32.06Z" transform="translate(0 0.01)"/><path class="f" d="M595.24,453.58a25.86,25.86,0,0,0,5.55,16,25.93,25.93,0,1,0,40.76,0C645,465.2,595.24,450.67,595.24,453.58Z" transform="translate(0 0.01)"/><ellipse class="e" cx="678.29" cy="583.79" rx="5.41" ry="7.09"/><ellipse class="e" cx="678.29" cy="575.13" rx="5.41" ry="7.09"/><ellipse class="e" cx="678.29" cy="566.47" rx="5.41" ry="7.09"/><ellipse class="e" cx="678.29" cy="557.81" rx="5.41" ry="7.09"/><ellipse class="e" cx="678.29" cy="549.15" rx="5.41" ry="7.09"/><ellipse class="e" cx="678.29" cy="540.49" rx="5.41" ry="7.09"/><ellipse class="e" cx="678.29" cy="531.83" rx="5.41" ry="7.09"/><path class="c" d="M698.55,472.55a27.44,27.44,0,0,0,2-3l-14.22-2.33,15.38.11a26,26,0,0,0,.49-20.54l-20.64,10.7,19-14a25.93,25.93,0,1,0-42.83,29,25.9,25.9,0,0,0-3,4.73l18.47,9.59-19.69-6.61a25.93,25.93,0,0,0,4.18,24.35,25.93,25.93,0,1,0,40.76,0,25.92,25.92,0,0,0,0-32.06Z" transform="translate(0 0.01)"/><path class="f" d="M652.24,488.58a25.86,25.86,0,0,0,5.55,16,25.93,25.93,0,1,0,40.76,0C702,500.2,652.24,485.67,652.24,488.58Z" transform="translate(0 0.01)"/><ellipse class="e" cx="736.29" cy="628.79" rx="5.41" ry="7.09"/><ellipse class="e" cx="736.29" cy="620.13" rx="5.41" ry="7.09"/><ellipse class="e" cx="736.29" cy="611.47" rx="5.41" ry="7.09"/><ellipse class="e" cx="736.29" cy="602.81" rx="5.41" ry="7.09"/><ellipse class="e" cx="736.29" cy="594.15" rx="5.41" ry="7.09"/><ellipse class="e" cx="736.29" cy="585.49" rx="5.41" ry="7.09"/><ellipse class="e" cx="736.29" cy="576.83" rx="5.41" ry="7.09"/><path class="c" d="M756.55,517.55a27.44,27.44,0,0,0,2-3l-14.22-2.33,15.38.11a26,26,0,0,0,.49-20.54l-20.64,10.7,19-14a25.93,25.93,0,1,0-42.83,29,25.9,25.9,0,0,0-3,4.73l18.47,9.59-19.69-6.61a25.93,25.93,0,0,0,4.18,24.35,25.93,25.93,0,1,0,40.76,0,25.92,25.92,0,0,0,0-32.06Z" transform="translate(0 0.01)"/><path class="f" d="M710.24,533.58a25.86,25.86,0,0,0,5.55,16,25.93,25.93,0,1,0,40.76,0C760,545.2,710.24,530.67,710.24,533.58Z" transform="translate(0 0.01)"/><ellipse class="e" cx="781.29" cy="550.79" rx="5.41" ry="7.09"/><ellipse class="e" cx="781.29" cy="542.13" rx="5.41" ry="7.09"/><ellipse class="e" cx="781.29" cy="533.47" rx="5.41" ry="7.09"/><ellipse class="e" cx="781.29" cy="524.81" rx="5.41" ry="7.09"/><ellipse class="e" cx="781.29" cy="516.15" rx="5.41" ry="7.09"/><ellipse class="e" cx="781.29" cy="507.49" rx="5.41" ry="7.09"/><ellipse class="e" cx="781.29" cy="498.83" rx="5.41" ry="7.09"/><path class="c" d="M801.55,439.55a27.44,27.44,0,0,0,2-3l-14.22-2.33,15.38.11a26,26,0,0,0,.49-20.54l-20.64,10.7,19-14a25.93,25.93,0,1,0-42.83,29,25.9,25.9,0,0,0-3,4.73l18.47,9.59-19.69-6.61a25.93,25.93,0,0,0,4.18,24.35,25.93,25.93,0,1,0,40.76,0,25.92,25.92,0,0,0,0-32.06Z" transform="translate(0 0.01)"/><path class="f" d="M755.24,455.58a25.86,25.86,0,0,0,5.55,16,25.93,25.93,0,1,0,40.76,0C805,467.2,755.24,452.67,755.24,455.58Z" transform="translate(0 0.01)"/><ellipse class="e" cx="1112.29" cy="441.79" rx="5.41" ry="7.09"/><ellipse class="e" cx="1112.29" cy="433.13" rx="5.41" ry="7.09"/><ellipse class="e" cx="1112.29" cy="424.47" rx="5.41" ry="7.09"/><ellipse class="e" cx="1112.29" cy="415.81" rx="5.41" ry="7.09"/><ellipse class="e" cx="1112.29" cy="407.15" rx="5.41" ry="7.09"/><ellipse class="e" cx="1112.29" cy="398.49" rx="5.41" ry="7.09"/><ellipse class="e" cx="1112.29" cy="389.83" rx="5.41" ry="7.09"/><path class="c" d="M1138.1,378.67v3c0,.15-.07.55-.11.83v.34a4.21,4.21,0,0,1-.16.86,4,4,0,0,1-.1.5c-.07.37-.16.72-.26,1.08s-.19.73-.3,1.07a20.91,20.91,0,0,1-.89,2.44c-.16.4-.33.78-.52,1.16s-.34.69-.52,1-.29.54-.44.8-.3.5-.47.75a3.19,3.19,0,0,0-.19.31l-.42.63a1.18,1.18,0,0,1-.15.2c-.17.26-.36.52-.56.77a26.19,26.19,0,0,1-3.31,3.59c-.26.24-.52.46-.79.68l-.09.07-.71.57-.38.27c-.23.18-.48.35-.72.51a24.37,24.37,0,0,1-3.58,2.05,8.85,8.85,0,0,1-1,.43,9,9,0,0,1-1,.38c-.36.11-.41.17-.62.23l-.36.13-1,.28-1,.27a2.33,2.33,0,0,1-.38.08l-.85.18c-.62.13-1.24.24-1.87.31h-.1c-.22,0-.45.06-.67.07l-.78.06h-3a5,5,0,0,1-.77-.06c-.21,0-.43,0-.64-.06h0c-.65-.07-1.29-.15-1.92-.28-.34-.06-.67-.14-1-.22a.54.54,0,0,1-.22-.05,25.81,25.81,0,0,1-4.1-1.33,22.45,22.45,0,0,1-2.1-1l-1-.54-.7-.43c-.46-.28-.91-.59-1.35-.91-.18-.13-.36-.26-.54-.41l-.38-.29c-.19-.16-.38-.3-.57-.47a.47.47,0,0,1-.15-.13c-.25-.2-.49-.43-.73-.64a26,26,0,0,1-2.29-2.4c-.24-.28-.47-.57-.69-.85s-.32-.42-.46-.63-.24-.33-.35-.49-.31-.45-.46-.69l-.55-.9c-.36-.6-.69-1.22-1-1.85-.14-.29-.27-.57-.39-.87a15.1,15.1,0,0,1-.63-1.57c-.14-.36-.26-.73-.37-1.1s-.24-.8-.34-1.21a0,0,0,0,1,0-.05c-.09-.36-.18-.73-.25-1.08s-.13-.62-.17-.93-.1-.56-.14-.84a.81.81,0,0,1,0-.22c-.06-.33-.09-.68-.12-1s-.07-.78-.08-1.16,0-.79,0-1.19a25.86,25.86,0,0,1,5.55-16c-.44-.56-.86-1.13-1.24-1.72-.13-.19-.25-.37-.36-.56s-.33-.54-.48-.81-.37-.64-.55-1a.41.41,0,0,1,0-.09,21.4,21.4,0,0,1-.94-2l-.28-.7c-.25-.67-.47-1.34-.67-2a21.76,21.76,0,0,1-.55-2.39c0-.24-.09-.49-.12-.73a.06.06,0,0,1,0-.06,5.81,5.81,0,0,0-.11-.71c-.07-.57-.12-1.16-.15-1.75v-1.44a25.81,25.81,0,0,1,1.37-8.31l19.69,6.61L1089,335.42a25.82,25.82,0,0,1,3-4.72,26,26,0,0,1-3.48-26.2,279.07,279.07,0,0,1,33.11,32.75q7.84,9.17,14.87,19a25.64,25.64,0,0,1-3.66,6.41l-.08.1A25.77,25.77,0,0,1,1138.1,378.67Z" transform="translate(0 0.01)"/><path class="f" d="M1086.24,346.58a25.86,25.86,0,0,0,5.55,16,25.93,25.93,0,1,0,40.76,0C1136,358.2,1086.24,343.67,1086.24,346.58Z" transform="translate(0 0.01)"/><path class="b" d="M654.22,172.46Q637,178.22,619.4,182.77q15.61-7.31,31.26-14.25C651.86,169.82,653,171.14,654.22,172.46Z" transform="translate(0 0.01)"/><path class="b" d="M356.92,47.09q8.65-.42,17.41-.41h.53c-7.12,4.69-14.28,9.19-21.49,13.41-1.81,1-3.62,2.1-5.44,3.11-1.37.78-2.75,1.54-4.12,2.29q-16.24,8.85-32.7,17.21Q298.61,89,286,95.08q-16.45,7.88-33.1,15.19c-26.92,11.79-54.08,22.4-81.52,31.51q34.75-21,69.55-41Q265.6,86.67,290.31,73l5.37-3q18.06-10,36.18-19.74l2.79-1.51Z" transform="translate(0 0.01)"/><path class="b" d="M716.62,269.34q4.21,9.46,7.89,19.2c-1.52.73-3,1.44-4.56,2.16-35.17,16.41-70.72,31.21-106.55,44.07q32.73-21.33,65.48-41.92Q697.74,281,716.62,269.34Z" transform="translate(0 0.01)"/><path class="e" d="M728.83,758.67c-.18-24.58-3.56-48.81-13.35-70.74a118.63,118.63,0,0,0-5.68-11.26,123.55,123.55,0,0,0-10.29-15.16,133.22,133.22,0,0,0-9.43-10.71A171.57,171.57,0,0,0,663,628.46c-16.25-11-34.28-19.86-52.35-27.32a518.39,518.39,0,0,0-69-23c-2.79-.71-5.58-1.4-8.39-2.08-.87-.22-1.74-.42-2.62-.63l-2.83-.65h0c-1.62-.38-3.22-.73-4.84-1.09q-7.25-1.59-14.52-3-12.61-2.4-25.32-4.16c-18.32-2.52-36.76-4.09-55.21-5.44l-8.89-.64h0l-23.76-1.68c-7.93-.6-15.85-1.23-23.76-2l-1.91-.1-3.71-.37c-3.28-.34-6.57-.68-9.85-1.06q-9.51-1.08-19-2.49-10.55-1.57-21.06-3.7l-1.15-.24c-1.86-.38-3.72-.79-5.57-1.2-1.1-.24-2.19-.49-3.28-.75q-10.08-2.37-20-5.36a260,260,0,0,1-27.17-9.87q-4.42-1.89-8.76-4l-1.18-.59a185.63,185.63,0,0,1-45.1-30.31l-1.13-1-2.4-2.3c-1.41-1.37-2.79-2.78-4.15-4.19s-2.63-2.75-3.93-4.15c-7.55-8.17-14.61-16.83-21.83-25.34-6.25-7.35-12.61-14.58-19.51-21.32-1.27-1.24-2.56-2.44-3.87-3.63a169.79,169.79,0,0,0-19-15.13c-.94-.65-1.89-1.28-2.84-1.9q-5.62-3.72-11.53-7c-3.85-2.14-7.79-4.14-11.79-6q-8-3.72-16.27-6.69a205.15,205.15,0,0,0-28.61-7.93A206.77,206.77,0,0,0,14.21,386h0c-4.22,0-8.44.22-12.63.55l-.87.08c.07.21.14.42.19.64a6.45,6.45,0,0,0,.58.31c-.08.91-.15,1.82-.22,2.72a8.81,8.81,0,0,1-.18,2.4Q0,406.67,0,421A372.41,372.41,0,0,0,42.54,594.47l.39.74A375.84,375.84,0,0,0,162.57,729.67,371.93,371.93,0,0,0,294.7,786.84l8.27,1.69q17.14,3.32,34.83,5,18,1.74,36.53,1.75a375,375,0,0,0,51.33-3.5H727.42C728.34,780.82,728.91,769.67,728.83,758.67Z" transform="translate(0 0.01)"/><path class="g" d="M574.05,126.14a18.25,18.25,0,0,0-10.55,1.15,15.57,15.57,0,0,1-12.65,0,17.77,17.77,0,0,0-14.89.29,9.27,9.27,0,0,1-4.29,1.07c-6,0-11.06-6.08-12.1-14.1a11.48,11.48,0,0,0,3-3.25c3.53-5.7,9-9.36,15.17-9.36s11.57,3.61,15.11,9.25a11.62,11.62,0,0,0,10,5.51H563C567.86,116.67,572,120.52,574.05,126.14Z" transform="translate(0 0.01)"/><path class="g" d="M594.1,118c-1.83,6.29-6.25,10.74-11.4,10.74a9.21,9.21,0,0,1-4.24-1,17.77,17.77,0,0,0-14.76-.29,15.7,15.7,0,0,1-6.3,1.34,15.29,15.29,0,0,1-4.84-.79c-.26-.07-.53-.18-.79-.27s-.49-.19-.73-.3a.44.44,0,0,0-.19-.07,6.71,6.71,0,0,0-.78-.32l-.75-.27a17.68,17.68,0,0,0-13.17.94,9.27,9.27,0,0,1-4.28,1.08,8.5,8.5,0,0,1-2.4-.35,1.87,1.87,0,0,1-.32-.08,1.9,1.9,0,0,1-.36-.12c-4.65-1.67-8.23-7.06-9-13.75a23.68,23.68,0,0,1-.18-2.91c0-9.51,5.5-17.21,12.3-17.21h.33a11.35,11.35,0,0,0,10-5.4A17.11,17.11,0,0,1,543.53,87,374.47,374.47,0,0,1,594.1,118Z" transform="translate(0 0.01)"/><path class="g" d="M71.05,263.49a17.78,17.78,0,0,0-3.49-.32,18.07,18.07,0,0,0-7.06,1.5c-.22.09-.44.19-.67.27A15.45,15.45,0,0,1,54.21,266a15.61,15.61,0,0,1-4.65-.71c-.26-.09-.53-.18-.79-.29s-.62-.23-.92-.37l-.78-.32-.75-.26a17.85,17.85,0,0,0-12,.27Q39.32,253.46,45,243a21.64,21.64,0,0,1,4.9,5.55,11.68,11.68,0,0,0,10,5.5h.15a8.93,8.93,0,0,1,1.71.17,9.78,9.78,0,0,1,3,1.11h0A15.22,15.22,0,0,1,71.05,263.49Z" transform="translate(0 0.01)"/><path class="g" d="M92,248.83c0,9.5-5.51,17.2-12.3,17.2a9.21,9.21,0,0,1-4.24-1,16.69,16.69,0,0,0-7.85-1.74,18,18,0,0,0-6.91,1.43c-.31.13-.61.26-.93.37a15.4,15.4,0,0,1-5.37,1,15.75,15.75,0,0,1-4.26-.59l-.58-.18c-.26-.09-.53-.18-.79-.29a7.28,7.28,0,0,1-.77-.31l-.19-.07c-.26-.12-.51-.21-.78-.32l-.75-.26-.69-.2a17.75,17.75,0,0,0-11.42.65,1.42,1.42,0,0,1,.08-.18q5-10.86,10.68-21.32,5.34-9.87,11.26-19.39c1.2-1.92,2.41-3.82,3.64-5.72a18.8,18.8,0,0,1,7.79,5.71l-3.73,6.78,5.91-3.75A11.66,11.66,0,0,0,75.59,231l-1.42,2.59,3.31-2.11a11.17,11.17,0,0,0,2,.16h.16a9.59,9.59,0,0,1,5.9,2.1l-4,7.35-1.88,3.43,8-5.06,1.78-1.13a7.29,7.29,0,0,1,.45.88A22.1,22.1,0,0,1,92,248.83Z" transform="translate(0 0.01)"/><ellipse class="h" cx="988.81" cy="549.51" rx="35.79" ry="46.85"/><ellipse class="h" cx="988.81" cy="492.24" rx="35.79" ry="46.85"/><ellipse class="h" cx="988.81" cy="434.98" rx="35.79" ry="46.85"/><ellipse class="h" cx="988.81" cy="377.72" rx="35.79" ry="46.85"/><ellipse class="h" cx="988.81" cy="320.45" rx="35.79" ry="46.85"/><path class="h" d="M956.3,243.57a59,59,0,0,0-3.3,19.62,56.45,56.45,0,0,0,7.46,28.63C967,302.9,977.26,310,988.79,310s21.78-7.14,28.33-18.22a56.32,56.32,0,0,0,7.45-27.49,272.62,272.62,0,0,0-31.27-11.92q-11.1-3.48-22.58-6Z" transform="translate(0 0.01)"/><path class="h" d="M970.74,246.38q11.47,2.53,22.58,6a28.39,28.39,0,0,1-4.51.37A29.52,29.52,0,0,1,970.74,246.38Z" transform="translate(0 0.01)"/><ellipse class="e" cx="321.81" cy="541.51" rx="35.79" ry="46.85"/><ellipse class="e" cx="321.81" cy="484.24" rx="35.79" ry="46.85"/><ellipse class="e" cx="321.81" cy="426.98" rx="35.79" ry="46.85"/><ellipse class="e" cx="321.81" cy="369.72" rx="35.79" ry="46.85"/><ellipse class="e" cx="321.81" cy="312.45" rx="35.79" ry="46.85"/><ellipse class="e" cx="321.81" cy="255.19" rx="35.79" ry="46.85"/><ellipse class="e" cx="321.81" cy="197.93" rx="35.79" ry="46.85"/><ellipse class="e" cx="321.81" cy="152.51" rx="35.79" ry="46.85"/><path class="e" d="M306.65,52.79a39.7,39.7,0,0,0-13.17,13.82A48.44,48.44,0,0,0,290.31,73,58.32,58.32,0,0,0,286,95.08v.16a56.45,56.45,0,0,0,7.46,28.63c6.54,11.08,16.8,18.22,28.33,18.22s21.78-7.14,28.33-18.22a58.65,58.65,0,0,0,0-57.26c-.7-1.18-1.44-2.32-2.21-3.41a35.92,35.92,0,0,0-16.07-12.93,25.66,25.66,0,0,0-2.69-.89h0Z" transform="translate(0 0.01)"/><path class="e" d="M329.16,49.38h0q2.73-.33,5.48-.62l22.27-1.67a56.41,56.41,0,0,1-3.55,13,50.66,50.66,0,0,1-3.23,6.52c-6.55,11.08-16.8,18.22-28.33,18.22a28.06,28.06,0,0,1-10.7-2.13A36.24,36.24,0,0,1,295.67,70c-.77-1.09-1.51-2.22-2.2-3.4a51.5,51.5,0,0,1-4.56-10.13q8.79-2.07,17.73-3.69Z" transform="translate(0 0.01)"/><ellipse class="e" cx="91.81" cy="400.51" rx="35.79" ry="46.85"/><ellipse class="e" cx="91.81" cy="343.24" rx="35.79" ry="46.85"/><ellipse class="e" cx="91.81" cy="285.98" rx="35.79" ry="46.85"/><path class="e" d="M127.6,228.67a56.45,56.45,0,0,1-7.46,28.63c-6.55,11.08-16.8,18.23-28.33,18.23-9.33,0-17.82-4.68-24.2-12.33v-.07a43.54,43.54,0,0,1-4.08-5.83c-.61-1-1.18-2.07-1.72-3.15A57.66,57.66,0,0,1,56,228.67q0-2.59.21-5.13c1.2-1.92,2.41-3.82,3.64-5.72,2.55-4,5.19-7.85,7.9-11.71q8.53-12.18,18-23.63a27.52,27.52,0,0,1,6-.67c11.53,0,21.78,7.14,28.33,18.23A56.5,56.5,0,0,1,127.6,228.67Z" transform="translate(0 0.01)"/><path class="e" d="M127.6,171.45a56.55,56.55,0,0,1-7.46,28.63c-6.55,11.08-16.81,18.21-28.33,18.21-9.26,0-17.69-4.59-24-12.14q8.53-12.18,18-23.63a371.58,371.58,0,0,1,35.6-37.45A57.28,57.28,0,0,1,127.6,171.45Z" transform="translate(0 0.01)"/><path class="h" d="M303,788.54q17.14,3.32,34.83,5,18,1.76,36.53,1.76a376.64,376.64,0,0,0,51.33-3.51H866.05c1.19.19,2.38.38,3.58.55a278.15,278.15,0,0,0,297.89-170q-11.71-7.61-23.62-14.83t-24.4-13.75l-3.78-2a332.07,332.07,0,0,0-47.65-20.11c-7.1-2.33-14.26-4.35-21.46-6q-5.11-1.18-10.25-2.12-6.46-1.18-13-1.94a176,176,0,0,0-34.42-.74h0q-3.16.24-6.34.63-6.11.71-12.19,1.92-7.5,1.5-14.76,3.68c-41.7,12.39-77.82,40.08-115.22,63.18l-1.43.89A570,570,0,0,1,715.48,687.8q-12.11,3.9-24.38,7.26-14,3.84-28.1,7c-1.79.4-3.59.79-5.38,1.16q-10.79,2.31-21.66,4.18a578.66,578.66,0,0,1-133.84,7.52q-10-.6-20.05-1.57-13.31-1.27-26.54-3.21h0l-1.82-.26c-7.63-1.13-15.26-2.42-22.88-3.71-9.14-1.54-18.28-3.06-27.43-4.3-3.1-.43-6.19-.81-9.29-1.16a241.84,241.84,0,0,0-29.35-1.62c-1.55,0-3.1.06-4.66.13-16.73.65-33.7,3.9-48.84,10.61l-.86.38a91.78,91.78,0,0,0-22.13,13.91c-1.91,1.63-3.75,3.35-5.52,5.18-12.92,13.33-20.65,29.68-27,46.78a367.42,367.42,0,0,0,39,10.7Z" transform="translate(0 0.01)"/><circle class="i" cx="389" cy="249.63" r="2"/><circle class="i" cx="186" cy="251.63" r="2"/><circle class="i" cx="615" cy="355.63" r="2"/><circle class="i" cx="767" cy="285.63" r="2"/><path class="h" d="M303,788.54a108.61,108.61,0,0,0,3.59-27.79c0-2.42-.09-4.82-.24-7.2a110.29,110.29,0,0,0,4-43.27c0-.21-.05-.43-.07-.64a107.31,107.31,0,0,0-11-36.77L254,687l-17.55,5.46,13.23-7.78,42-24.68a108.76,108.76,0,0,0-81.74-46.59,110.13,110.13,0,0,0-8.48-11.23L166.57,613,111,630.28l47.68-28,26.42-15.61A108.76,108.76,0,0,0,43.56,594.6h0l-.62.61a376,376,0,0,0,119.64,134.5A371.9,371.9,0,0,0,294.7,786.85Z" transform="translate(0 0.01)"/><path class="e" d="M510.19,791.83H426.38c9.8-16.13,24.93-26.48,41.91-26.48S500.4,775.67,510.19,791.83Z" transform="translate(0 0.01)"/><path class="j" d="M510.19,791.83H426.38c9.8-16.13,24.93-26.48,41.91-26.48S500.4,775.67,510.19,791.83Z" transform="translate(0 0.01)"/><path class="h" d="M303,788.54q17.14,3.32,34.83,5,18,1.76,36.53,1.76a376.64,376.64,0,0,0,51.33-3.51H620.38a108.91,108.91,0,0,0,11.18-48.08c0-2.42-.09-4.82-.24-7.2a108.72,108.72,0,0,0,4.68-29v-2.58a108.32,108.32,0,0,0-11.65-49l-63,19.58L616.61,643a108.76,108.76,0,0,0-81.74-46.59c-1.33-2.06-2.76-4.06-4.27-6-.41-.54-.83-1.08-1.25-1.61q-1.44-1.83-3-3.59l-2.54.79L436,613.28l72.38-42.61,1.72-1a108.84,108.84,0,0,0-83.51-21c-1.66.25-3.31.56-4.95.91a108.93,108.93,0,0,0-82.75,78.09l23,26.45,8.34,9.61,18.64,21.46,14.54,16.73,12.95,14.91L394.1,700.78l-31.25-22.57-30.64-22.13A108.81,108.81,0,0,0,294.7,786.86Z" transform="translate(0 0.01)"/><path class="h" d="M676.08,755.15c6.45-10.71.35-24.48-6.93-34.63s-16.22-20.79-15.44-33.25c1.13-17.92,20.66-27.62,36.31-36.41a168.85,168.85,0,0,0,32.17-23.48c3.91-3.64,7.71-7.55,10.12-12.31,3.47-6.86,3.76-14.84,3.92-22.54q.76-38.41-.23-76.86Z" transform="translate(0 0.01)"/><path class="k" d="M1091.84,471.8q5.65,12.78,11.09,25.65,9.51,22.55,18.35,45.35c2.78,7.17,5.55,14.66,5,22.33-.42,5.33-2.44,10.39-4.68,15.24l-.21.46q-2.61,5.61-5.62,11a168,168,0,0,1-11.13,17.38q-1.87,2.58-3.85,5.08c-5.14,6.51-11,13.52-15.19,20.85-3.38,5.86-5.72,11.93-5.84,18.12a24.68,24.68,0,0,0,1.31,8.52c4,11.83,16.34,18.25,26.94,24.87a57.16,57.16,0,0,1,13.46,11.29" transform="translate(0 0.01)"/><circle class="h" cx="1092.72" cy="471.39" r="28"/><circle class="h" cx="1142.21" cy="518.06" r="28"/><circle class="h" cx="1093.46" cy="583.55" r="28"/><circle class="h" cx="1107.7" cy="652.3" r="28"/><path class="k" d="M860.55,660.06c1.88-12.35-9-22.76-19.59-29.38s-23-13-27-24.88c-5.77-17,8.59-33.39,19.72-47.48a168.44,168.44,0,0,0,20.81-34c2.24-4.85,4.26-9.91,4.68-15.23.6-7.67-2.17-15.16-5-22.33q-13.87-35.85-29.44-71" transform="translate(0 0.01)"/><circle class="h" cx="825.72" cy="415.39" r="28"/><circle class="h" cx="875.21" cy="462.06" r="28"/><circle class="h" cx="826.46" cy="527.55" r="28"/><circle class="h" cx="840.7" cy="596.3" r="28"/><path class="l" d="M370.86,565.84c2.92-4.39.62-10.31-2.25-14.73s-6.44-9.06-5.87-14.3c.81-7.53,9.23-11.24,16-14.65a71.14,71.14,0,0,0,14-9.27,19.38,19.38,0,0,0,4.51-5c1.59-2.83,1.86-6.19,2.08-9.42q1.08-16.19,1.38-32.39" transform="translate(0 0.01)"/><circle class="e" cx="401.12" cy="466.09" r="11.81"/><circle class="e" cx="411.73" cy="492.75" r="11.81"/><circle class="e" cx="381.43" cy="509.11" r="11.81"/><circle class="e" cx="374.63" cy="537.93" r="11.81"/><path class="m" d="M918,368.39c-1.53-8.49-.77-17.64-4.66-25.31a5.55,5.55,0,0,0-1.77-2.27,6.13,6.13,0,0,0-3.17-.72c-3.51-.15-7-.19-10.55-.1a2.94,2.94,0,0,0-2.65,1c-.05.1-.1.2-.14.3-4-4.5-7.08-10.1-11.42-14.26.62-.2,1.24-.4,1.87-.57-.06-.42-.14-.84-.23-1.25l-.1-.37c-.07-.29-.15-.57-.23-.85s-.1-.27-.14-.41-.17-.53-.27-.79l-.17-.41c-.1-.26-.2-.52-.32-.77s-.11-.25-.17-.38l-.38-.8c0-.11-.11-.21-.16-.32-.15-.29-.29-.57-.44-.84l-.15-.27-.51-.9-.1-.17c-.2-.34-.4-.68-.61-1h0c-1.7-2.78-3.58-5.5-4.95-8.33-2.43-5-3.23-10.64-4.84-16s-4.41-10.74-9.3-13.27c-2.32-1.2-5.45-2.25-5.66-4.89a5.62,5.62,0,0,1,.51-2.45,32,32,0,0,1,2.43-4.91c.34-.58.72-1.15,1.1-1.7.09-.14.19-.27.29-.41.3-.42.61-.82.92-1.22l.39-.49c.32-.38.64-.75,1-1.11l.39-.44c.46-.49.93-1,1.42-1.43a3.34,3.34,0,0,0,1-1.32,4,4,0,0,0,.08-1.57c-.24-4.25,2-8.22,4.49-11.64s5.38-6.67,6.79-10.67c.16-.46.3-.93.42-1.39a2.63,2.63,0,0,1,.1-.47c0-.16.14-.63.2-.94s.05-.37.08-.55.08-.59.11-.88a3.68,3.68,0,0,0,0-.58v-2.89a4.24,4.24,0,0,0-.08-.94c-.08-.31,0-.34,0-.51q-.06-.54-.15-1.08v-.36c-.08-.5-.17-1-.27-1.48h0a75.42,75.42,0,0,0-2.73-9.29A33.35,33.35,0,0,0,873,208.3c.55-.1,1.1-.23,1.66-.38-.35-.64-.9-1.39-1.21-2.11,3.29-5.16,6.16-10.56,7.6-16.49a73.92,73.92,0,0,0,1.56-12.75c.83-12.87,1.65-25.81.59-38.66v-.51a31.82,31.82,0,0,0,.08-8.33c-.53-5.38-1.79-10.81-4.67-15.36s-7.65-8.56-12.94-9.1a19.23,19.23,0,0,1-2.89,2.67,11.3,11.3,0,0,1-3.36-5.24,28.56,28.56,0,0,0,24-25c.06-.47.1-.94.13-1.41V71.55a4.39,4.39,0,0,0-.08-1v-.34a5.24,5.24,0,0,0-.14-1V69c-.06-.38-.13-.75-.2-1.12v-.12c-.08-.4-.17-.79-.27-1.19h0a29,29,0,0,0-3.14-7.7,29,29,0,0,0,2.26-8.27c.06-.52.11-1,.14-1.54v-2.9A29,29,0,0,0,874,27,18.08,18.08,0,0,0,875.45,24h0c.11-.31.21-.62.31-.94h0c.09-.3.17-.6.24-.91V22c.07-.28.12-.56.18-.85V21c.06-.33.11-.66.15-1s.07-.7.09-1V16.59a17.59,17.59,0,0,0-35.06-.8,18.25,18.25,0,0,0,.16,5.42A28.77,28.77,0,0,0,825.35,48.5a29,29,0,0,0-4.5,13.36h0v.54c0,.6-.07,1.2-.07,1.81A28.88,28.88,0,0,0,831.9,87.06,20.2,20.2,0,0,0,837.52,93a23.72,23.72,0,0,1,.9,3.72c.17,3.4-.84,7-3.41,9.23-.65.54-1.37,1-2,1.51a3.65,3.65,0,0,0-2.07,0c-7.67,2.41-15,7.18-18.55,14.5a27.91,27.91,0,0,0-1.84,5.17c-.14.21-.29.42-.42.64a74.61,74.61,0,0,0-10,23.87c-1,4.33-1.57,8.83-3.59,12.77A12.55,12.55,0,0,0,795.4,167a26.66,26.66,0,0,0-.18,4.19c-.21,2.53-1.68,4.77-2.17,7.26-.3,1.48-.24,3-.5,4.5-.46,2.61-1.87,4.93-2.77,7.41-1.59,4.37-1.57,9.17-2.74,13.68a4.64,4.64,0,0,1-.92,2c-.8.89-2.06,1.1-3.1,1.67a6.81,6.81,0,0,0-3.11,4.66,20.8,20.8,0,0,0-.1,5.79l.58,7.55c-2.82.84-5.63,1.7-8.44,2.56l-13.87,4.24c-4,1.22-8.06,2.48-11.51,4.86a21,21,0,0,0-7.25,8.8c-1.58,3.61-2.13,7.58-2.69,11.5-1.59,11-3.52,22-7.13,32.41-.28.81-.58,1.62-.88,2.43h0c-.3.8-.62,1.59-.94,2.38l-.21.48c-.26.64-.52,1.27-.8,1.89-.36.8-.72,1.6-1.11,2.38L758,310.54a10.68,10.68,0,0,0,.14,1.27c1.12,8,.58,16.06,1.62,24a15.28,15.28,0,0,0,.9,3.89,5.58,5.58,0,0,0-1.7,2.71,14.49,14.49,0,0,0-.17,5.17q.56,6.1,1.1,12.23a18.74,18.74,0,0,1,.05,4.49c-.41,2.69-1.94,5.05-2.8,7.63s-.8,5.87,1.33,7.51a5.27,5.27,0,0,0,5.11.46,11.77,11.77,0,0,0,4.23-3.27c6.54-7.24,9.46-17.05,14.55-25.42a49.15,49.15,0,0,0,3.47-6.06c.7-1.62,1.14-3.34,1.71-5a48.79,48.79,0,0,1,2.8-6.53c.6-1.2,2.92-4.1,2.43-5.45-.83-2.29-9.74-4.33-11.94-5-1.42-.46-3-.87-4.36-.2a3.35,3.35,0,0,0-.59.39c-.25-3.28-.51-6.56-.76-9.83,1.32-.12,2.63-.29,3.93-.5,0-1.85-.09-3.71-.13-5.58l-.12-5.13c-.09-4.15-.18-8.31-.29-12.41a66.59,66.59,0,0,0-.46-7.2c-.51-3.66-1.62-7.22-2-10.89a4.07,4.07,0,0,1,1.84-.84h0a12.78,12.78,0,0,1,3.15-.11h.83c4.58.14,9.06-1.48,13.14-3.62s7.87-4.8,11.93-7c.5-.27,1-.53,1.53-.79l.56-.28,1-.47.79-.38.18-.09c2.37-1.13,4.76-2.23,7-3.46a7.11,7.11,0,0,0,.5.72,4.69,4.69,0,0,0,5,1.8c-2.8,6.77-6.1,13.32-6.94,20.64-1.22,10.56,3,20.9,7.15,30.66l13.23,31.19c1.46,3.45,3.41,7.32,7,8.14,2.24.51,4.56-.34,6.64-1.33,6-2.88,11.5-7,17-10.88a1.84,1.84,0,0,1,.22.17c5,3.95,8.15,9.48,11.61,14.75l9.28,15.23a4.41,4.41,0,0,0,.37,2.24,12.93,12.93,0,0,0,2.6,3.37,43.94,43.94,0,0,1,11.15,22.82c.34,2.16.57,4.46,1.84,6.23,2.49,3.45,7.78,3.23,11.52,1.26a7.49,7.49,0,0,0,2.88-2.38,9.41,9.41,0,0,0,1.17-3.61,50.5,50.5,0,0,0,1.11-9.57C921.31,380.18,919.06,374.37,918,368.39ZM864.8,88.17c.64-.43,1.26-.9,1.87-1.39a28.69,28.69,0,0,1-6,10.2h0c-.63.69-1.3,1.34-2,2v-.47c-.08-1.53,0-3.14.05-4.72A20.27,20.27,0,0,0,864.8,88.17ZM812.28,205.52a1,1,0,0,1,.11-.29,6,6,0,0,1,1.35,1.4,5.58,5.58,0,0,0,.2,5c.78,1.32,2.18,2.54,1.87,4s-2.2,2.09-3.75,2.34c-2,.32-4,.7-6,1.11V219a15.63,15.63,0,0,0-.68-4.95C808.8,212.61,810.94,209.07,812.28,205.52Z" transform="translate(0 0.01)"/><path class="h" d="M874.18,32.38a17.65,17.65,0,1,0-32.7-11.14,18,18,0,0,0,.16,5.34,28.35,28.35,0,0,0-15.95,22.2,29.11,29.11,0,0,0-.17,4.76A28.37,28.37,0,1,0,877.67,69V67.67a28.39,28.39,0,0,0-3.46-35.29Z" transform="translate(0 0.01)"/><g class="n"><path d="M841.41,22.1l.23-.12a7.43,7.43,0,0,0-.13-.93v.19A5,5,0,0,0,841.41,22.1Z" transform="translate(0 0.01)"/><path d="M882,51a28.27,28.27,0,0,1-4.39,12.09v1.35A28.37,28.37,0,0,1,821,66.67c-.06.76-.1,1.53-.1,2.31a28.38,28.38,0,0,0,56.75,1.07c0-.36,0-.71,0-1.07V67.63a28.31,28.31,0,0,0,4.35-12,27.44,27.44,0,0,0,.1-5.73A5.3,5.3,0,0,1,882,51Z" transform="translate(0 0.01)"/><path d="M876.51,21a17.69,17.69,0,0,1-2.33,6.75,14.38,14.38,0,0,1,1.42,1.59,17.37,17.37,0,0,0,.93-3.89A17.91,17.91,0,0,0,876.51,21Z" transform="translate(0 0.01)"/></g><path class="o" d="M759.84,336.8a12.76,12.76,0,0,0,1.29,4.65,5.12,5.12,0,0,0,3.76,2.75A7.63,7.63,0,0,0,769,343c2.52-1.32,5.15-2.85,6.46-5.38s1.1-5.37.88-8.12l-1.69-21.63c-4.09-.12-8.2-.11-12.28.11s-4.75,1.17-4.19,5.12C759.34,321,758.79,328.94,759.84,336.8Z" transform="translate(0 0.01)"/><path class="o" d="M879.73,351.43l9.72,15.71a3.92,3.92,0,0,0,2.12,2,3.37,3.37,0,0,0,2-.36c3.24-1.41,5.72-4.11,8.11-6.72,1.61-1.78,3.28-3.65,3.89-6a7.62,7.62,0,0,0-1.94-7.16,25,25,0,0,0-3.67-2.62c-7.69-5.18-11.16-15-18.74-20.36a3,3,0,0,0-1.54-.66,3.2,3.2,0,0,0-1.58.53l-10.37,5.69c-4.49,2.45-3.07,2.74.34,5.39C873.13,340.78,876.26,346.23,879.73,351.43Z" transform="translate(0 0.01)"/><path class="h" d="M780.94,324.29c-1.42-.45-3-.85-4.36-.2a4.83,4.83,0,0,0-2.27,3.59c-.27,1.44-.24,2.94-.64,4.35-.68,2.39-2.49,4.25-4.24,6a6.23,6.23,0,0,1-2.67,1.85c-1.4.36-2.89-.29-4.32,0a4.69,4.69,0,0,0-3.4,3.47,13.62,13.62,0,0,0-.17,5.09L760,360.5a18.24,18.24,0,0,1,0,4.43c-.41,2.65-2,5-2.8,7.52s-.81,5.79,1.33,7.41a5.37,5.37,0,0,0,5.12.45,11.87,11.87,0,0,0,4.24-3.22c6.55-7.14,9.47-16.82,14.56-25.06a49.1,49.1,0,0,0,3.49-6c.69-1.61,1.14-3.3,1.7-5a48.32,48.32,0,0,1,2.81-6.43c.61-1.19,2.92-4,2.44-5.38C792.08,327,783.15,325,780.94,324.29Z" transform="translate(0 0.01)"/><path class="h" d="M899,357.55a12.51,12.51,0,0,1-6.88,5.91,6.37,6.37,0,0,0-2.32,1.21,3.63,3.63,0,0,0-.41,4A12.64,12.64,0,0,0,892,372a43,43,0,0,1,11.17,22.5c.34,2.13.57,4.39,1.85,6.14,2.49,3.4,7.79,3.18,11.53,1.24a7.41,7.41,0,0,0,2.89-2.34,9.4,9.4,0,0,0,1.17-3.56,49.87,49.87,0,0,0,1.11-9.44c-.07-6-2.32-11.73-3.4-17.63-1.53-8.37-.76-17.39-4.66-24.95a5.57,5.57,0,0,0-1.78-2.24,6.25,6.25,0,0,0-3.17-.71c-3.52-.15-7.05-.18-10.57-.09-1,0-2.15.14-2.66,1s-.06,2,.4,2.87C898.06,349,901.6,352.43,899,357.55Z" transform="translate(0 0.01)"/><path class="h" d="M815.37,207.51a5.42,5.42,0,0,0-1.27,6.86c.78,1.3,2.18,2.5,1.87,4s-2.21,2.06-3.76,2.31c-13.65,2.17-26.94,6.17-40.18,10.15L758.14,235c-4,1.21-8.08,2.45-11.54,4.8a20.68,20.68,0,0,0-7.26,8.67c-1.58,3.56-2.13,7.48-2.7,11.33-2.08,14.2-4.74,28.53-11.08,41.4l33.69,11a48.14,48.14,0,0,0,10.09,2.54,37.66,37.66,0,0,0,9.83-.47c-.21-7.52-.34-15.27-.55-22.79a62.55,62.55,0,0,0-.46-7.11c-.5-3.6-1.62-7.11-2-10.73,1.55-1.28,3.81-1,5.82-.91,4.6.14,9.09-1.46,13.17-3.57s7.89-4.73,12-6.87c6.77-3.58,14.47-6,19.64-11.65-2.63,10-8.85,18.78-10,29.08s3,20.6,7.16,30.23l13.26,30.75c1.46,3.4,3.41,7.21,7,8,2.25.51,4.57-.34,6.66-1.31,12.19-5.72,22-16.45,35-19.89-1-6.45-6.06-11.78-9-17.63-2.43-4.93-3.23-10.48-4.85-15.74s-4.41-10.58-9.31-13.08c-2.32-1.18-5.46-2.21-5.68-4.82a5.61,5.61,0,0,1,.52-2.42,31.72,31.72,0,0,1,7.93-11.54,3.55,3.55,0,0,0,1-1.3,3.86,3.86,0,0,0,.08-1.55c-.25-4.19,2-8.11,4.5-11.47s5.39-6.57,6.8-10.52c2.42-6.8,0-14.26-2.38-21.06-1-2.75-2-5.59-4-7.72-3.12-3.34-8-4.3-12.53-4.8C844.28,202.29,827,198.44,815.37,207.51Z" transform="translate(0 0.01)"/><g class="n"><path d="M871.06,237.26c-2.51,3.37-4.75,7.28-4.5,11.47a3.86,3.86,0,0,1-.08,1.55,3.58,3.58,0,0,1-1,1.31,31.72,31.72,0,0,0-7.93,11.54,5.61,5.61,0,0,0-.52,2.42c.14,1.63,1.43,2.65,3,3.47a31.65,31.65,0,0,1,5.5-6.7,3.55,3.55,0,0,0,1-1.3,3.86,3.86,0,0,0,.08-1.55c-.25-4.19,2-8.11,4.5-11.47s5.39-6.57,6.8-10.52a22,22,0,0,0,.36-11.9c-.11.39-.23.78-.36,1.16C876.45,230.67,873.56,233.89,871.06,237.26Z" transform="translate(0 0.01)"/><path d="M813.84,209.54a2.84,2.84,0,0,0,2.16-1.87,1.88,1.88,0,0,0,0-.58c-.21.16-.42.3-.63.47A5,5,0,0,0,813.84,209.54Z" transform="translate(0 0.01)"/><path d="M769.34,304a49.57,49.57,0,0,1-10.09-2.54l-29.74-9.75a89.92,89.92,0,0,1-4,9.44l33.69,11a48.14,48.14,0,0,0,10.09,2.54,37.66,37.66,0,0,0,9.83-.47c-.1-3.53-.18-7.12-.26-10.7A37,37,0,0,1,769.34,304Z" transform="translate(0 0.01)"/><path d="M850.81,336.67c-2.09,1-4.41,1.82-6.66,1.32-3.6-.81-5.55-4.63-7-8l-13.26-30.75c-2.91-6.76-5.86-13.8-6.94-21-.08.51-.16,1-.22,1.52-1.22,10.41,3,20.6,7.16,30.23l13.26,30.75c1.46,3.4,3.41,7.21,7,8,2.25.51,4.57-.34,6.66-1.31,12.19-5.72,22-16.45,35-19.89-.5-3.36-2.14-6.42-4-9.41C870.69,322.46,861.72,331.59,850.81,336.67Z" transform="translate(0 0.01)"/><path d="M826.77,239.94c-5.17,5.65-12.87,8.06-19.64,11.64-4.06,2.15-7.86,4.77-12,6.88s-8.57,3.7-13.17,3.57c-2-.06-4.27-.38-5.82.9.32,3.35,1.29,6.59,1.84,9.91a17.27,17.27,0,0,1,4-.08c4.6.14,9.09-1.46,13.17-3.57s7.89-4.73,12-6.87c4.46-2.36,9.32-4.22,13.6-6.82C822.89,250.39,825.35,245.35,826.77,239.94Z" transform="translate(0 0.01)"/></g><path class="o" d="M838.59,101.06c.17,3.35-.84,6.94-3.42,9.09-.83.69-1.79,1.22-2.59,1.94a7,7,0,0,0,.14,9.9,7.2,7.2,0,0,0,.86.71c2.67,1.64,6.08,1.2,9.17.66a53.58,53.58,0,0,0,12-3.14,20,20,0,0,0,9.5-7.78c-3.37-1.87-5.2-5.82-5.41-9.66s.85-8.23-1.59-11.22-6.7-2.89-10.25-1.89c-1.8.5-3.54,1.18-5.34,1.67-.91.24-3.93.25-4.52.92C836,93.5,838.48,99.11,838.59,101.06Z" transform="translate(0 0.01)"/><path class="j" d="M838.59,101.06c.17,3.35-.84,6.94-3.42,9.09-.83.69-1.79,1.22-2.59,1.94a7,7,0,0,0,.14,9.9,7.2,7.2,0,0,0,.86.71c2.67,1.64,6.08,1.2,9.17.66a53.58,53.58,0,0,0,12-3.14,20,20,0,0,0,9.5-7.78c-3.37-1.87-5.2-5.82-5.41-9.66s.85-8.23-1.59-11.22-6.7-2.89-10.25-1.89c-1.8.5-3.54,1.18-5.34,1.67-.91.24-3.93.25-4.52.92C836,93.5,838.48,99.11,838.59,101.06Z" transform="translate(0 0.01)"/><circle class="o" cx="848.91" cy="80.91" r="19.94"/><path class="o" d="M786,233.88a13.47,13.47,0,0,1-1.88,4.43,20.8,20.8,0,0,0-2.38,13.61,14.39,14.39,0,0,0,8.39,10.59c1.86.74,4.17.93,5.71-.36-2.66-3.46-2.8-8.19-2.64-12.56a4.14,4.14,0,0,1,.56-2.33,1.47,1.47,0,0,1,2-.44l.08.06a19.1,19.1,0,0,0,1.56,8c.42,1,1.14,2,2.2,2,1.52,0,1.93-2.1,1.87-3.62-.23-6.18-.54-12.62-3.52-18-1.09-2-2.54-3.84-3-6.07a3.59,3.59,0,0,0-.76-2.13,2.62,2.62,0,0,0-1.12-.52c-1.72-.49-5.78-2-7.2-.39S786.23,231.82,786,233.88Z" transform="translate(0 0.01)"/><path class="p" d="M815.56,127.94c-2.28-.25-4.09,1.84-5.34,3.77a72.87,72.87,0,0,0-9.93,23.53c-1,4.27-1.57,8.7-3.6,12.58a13.44,13.44,0,0,0-1.17,2.56,25.91,25.91,0,0,0-.18,4.13c-.21,2.49-1.68,4.7-2.18,7.16-.29,1.46-.23,3-.49,4.44-.46,2.57-1.87,4.85-2.78,7.3-1.59,4.31-1.57,9-2.74,13.49a4.65,4.65,0,0,1-.93,2c-.79.87-2.06,1.09-3.1,1.64a6.73,6.73,0,0,0-3.11,4.6,20.23,20.23,0,0,0-.11,5.71l.92,11.79c.94-.39,1.56-1.46,2.35-2.12,1.44-1.2,3.56-.93,5.4-.59l2.69.48c2.75.5,5.74,1.14,7.5,3.3,1.4-2.19.6-5.42,2.75-6.88a20.39,20.39,0,0,1,2.31-1,5.19,5.19,0,0,0,2.35-4.14,15.26,15.26,0,0,0-.68-4.89c3.45-1.45,5.6-5,7-8.44a70.77,70.77,0,0,0,3.21-13c3.11-17.53,6-35.18,6.25-53a25.34,25.34,0,0,0-1-8.83C819.94,130.67,818.52,128.28,815.56,127.94Z" transform="translate(0 0.01)"/><path class="j" d="M815.56,127.94c-2.28-.25-4.09,1.84-5.34,3.77a72.87,72.87,0,0,0-9.93,23.53c-1,4.27-1.57,8.7-3.6,12.58a13.44,13.44,0,0,0-1.17,2.56,25.91,25.91,0,0,0-.18,4.13c-.21,2.49-1.68,4.7-2.18,7.16-.29,1.46-.23,3-.49,4.44-.46,2.57-1.87,4.85-2.78,7.3-1.59,4.31-1.57,9-2.74,13.49a4.65,4.65,0,0,1-.93,2c-.79.87-2.06,1.09-3.1,1.64a6.73,6.73,0,0,0-3.11,4.6,20.23,20.23,0,0,0-.11,5.71l.92,11.79c.94-.39,1.56-1.46,2.35-2.12,1.44-1.2,3.56-.93,5.4-.59l2.69.48c2.75.5,5.74,1.14,7.5,3.3,1.4-2.19.6-5.42,2.75-6.88a20.39,20.39,0,0,1,2.31-1,5.19,5.19,0,0,0,2.35-4.14,15.26,15.26,0,0,0-.68-4.89c3.45-1.45,5.6-5,7-8.44a70.77,70.77,0,0,0,3.21-13c3.11-17.53,6-35.18,6.25-53a25.34,25.34,0,0,0-1-8.83C819.94,130.67,818.52,128.28,815.56,127.94Z" transform="translate(0 0.01)"/><path class="p" d="M865.83,108.86a25,25,0,0,1-12.13,7,74.39,74.39,0,0,1-14,2.07,8.76,8.76,0,0,1-4.34-.38c-1.34-.6-2.36-2.19-1.81-3.55a3.88,3.88,0,0,0,.45-1.33c0-1.21-1.81-1.31-3-1-7.68,2.37-15,7.07-18.58,14.28-2,4.08-2.66,8.66-3.3,13.15-1.66,11.82-3.33,23.9-1.09,35.62,1.19,6.25,3.49,12.35,3.63,18.71.08,3.57-.52,7.12-.49,10.69a5.37,5.37,0,0,0,.94,3.52c.55.64,1.39,1.05,1.77,1.8.64,1.26-.22,3,.63,4.13,1,1.39,3.23.39,4.66-.59a37.11,37.11,0,0,1,24.68-6.22c10.45,1.13,20.83,6.69,31,3.91a13.89,13.89,0,0,1-1.35-2.41c-5-16.61-4.71-35.17,2.85-50.79,2.59-5.34,6-10.43,7-16.27a30.87,30.87,0,0,0,.1-8.26c-.53-5.31-1.8-10.66-4.68-15.15S871.14,109.38,865.83,108.86Z" transform="translate(0 0.01)"/><path class="o" d="M817.59,239a18.27,18.27,0,0,0-1.15,6.79,39.71,39.71,0,0,0,.33,6.63,10.52,10.52,0,0,0,1.94,5.2,4.76,4.76,0,0,0,5,1.77,5.2,5.2,0,0,0,3-3.34,30.49,30.49,0,0,0,.94-4.54c.88-4.53,3.25-8.78,3.3-13.39a3.8,3.8,0,0,0-.26-1.6c-.86-1.9-5.1-4-7.17-3.7C820.92,233.23,818.53,236.83,817.59,239Z" transform="translate(0 0.01)"/><path class="j" d="M875.13,125.67c-.39,4,3.44,7,5,10.64a18.08,18.08,0,0,1,1,5.35c1.07,12.67.24,25.42-.59,38.12A72,72,0,0,1,879,192.36c-2.14,8.68-7.41,16.19-12.57,23.49a20.24,20.24,0,0,1-2.69,3.29,20,20,0,0,1-5,3L841,230.77a33.88,33.88,0,0,0-6.29,3.62,17.16,17.16,0,0,0-5.21,6.77c-3.43-1.75-7-3.33-10.43-5.08-.81-.41-1.71-1-1.84-1.84-.19-1.2,1.06-2,1.92-2.9,1.61-1.59,2.11-4,3-6,2.85-6.84,10-11.21,12.6-18.15,1-2.66,1.3-5.67,3.06-7.91a19.68,19.68,0,0,1,3.38-3,57.08,57.08,0,0,0,7.48-7.67,13.09,13.09,0,0,0,2.45-3.58c.78-2,.55-4.17.59-6.28.13-6.92,3.26-13.38,5.18-20,1.8-6.26,2.55-12.84,4.92-18.91S868.82,127.32,875.13,125.67Z" transform="translate(0 0.01)"/><path class="p" d="M877.43,125.67c-.39,4,3.44,7,5,10.64a18.08,18.08,0,0,1,1,5.35c1.07,12.67.24,25.42-.59,38.12a71.77,71.77,0,0,1-1.56,12.56c-2.14,8.68-7.41,16.19-12.57,23.49a20.24,20.24,0,0,1-2.69,3.29,20,20,0,0,1-5,3l-17.7,8.58a33.88,33.88,0,0,0-6.29,3.62,17.16,17.16,0,0,0-5.21,6.77c-3.43-1.75-7-3.33-10.43-5.08-.81-.41-1.71-1-1.84-1.84-.19-1.2,1.06-2,1.92-2.9,1.61-1.59,2.11-4,3-6,2.85-6.84,10-11.21,12.6-18.15,1-2.66,1.3-5.67,3.06-7.91a19.68,19.68,0,0,1,3.38-3,57.75,57.75,0,0,0,7.49-7.67,13.06,13.06,0,0,0,2.44-3.58c.78-2,.55-4.17.59-6.28.13-6.92,3.26-13.38,5.18-20,1.8-6.26,2.55-12.84,4.92-18.91S871.12,127.32,877.43,125.67Z" transform="translate(0 0.01)"/><path class="h" d="M858.8,50.09a28.16,28.16,0,0,0-17.7,3.66,19.19,19.19,0,0,1,2.37.18,28.37,28.37,0,0,1,10.9,52.67,28.37,28.37,0,0,0,4.43-56.51Z" transform="translate(0 0.01)"/><path class="h" d="M867.53,65.86a13,13,0,0,1,.22,9.94,10.38,10.38,0,0,0-.46-1.21c-3.51-7.81-14.31-11-24.13-7.22-5.79,2.25-9.94,6.45-11.66,11.11-2.5-7.54,2.58-16.21,11.9-19.83C853.22,54.83,864,58.06,867.53,65.86Z" transform="translate(0 0.01)"/><g class="n"><path d="M867.58,75.18a28.4,28.4,0,0,0-19-24.48,28.63,28.63,0,0,0-7.52,3,19.19,19.19,0,0,1,2.37.18A28.37,28.37,0,0,1,867.58,75.18Z" transform="translate(0 0.01)"/><path d="M872.18,54.47a28.38,28.38,0,0,0-19-24.47,28,28,0,0,0-7.52,3,19.19,19.19,0,0,1,2.37.18A28.36,28.36,0,0,1,872.18,54.47Z" transform="translate(0 0.01)"/><path d="M872.3,23.55A17.14,17.14,0,0,0,860.86,8.77a16.94,16.94,0,0,0-4.54,1.9,6.93,6.93,0,0,1,1.43.1A17.14,17.14,0,0,1,872.3,23.55Z" transform="translate(0 0.01)"/><path d="M882.91,71.33a28.36,28.36,0,0,1-22,30,28.38,28.38,0,0,1-6.56,5.29,28.36,28.36,0,0,0,28.54-35.27Z" transform="translate(0 0.01)"/></g></svg>